<svg xmlns="http://www.w3.org/2000/svg" xmlns:xlink="http://www.w3.org/1999/xlink" x="0px" y="0px" width="48px" height="48px" viewBox="0 0 48 48"><g transform="translate(0, 0)"><path fill="#B3B3B3" d="M38,22v23H3V10h23V8H2C1.447,8,1,8.448,1,9v37c0,0.552,0.447,1,1,1h37c0.553,0,1-0.448,1-1V22H38z"></path>
<path fill="#72C472" d="M46,8h-6V2c0-0.552-0.447-1-1-1s-1,0.448-1,1v6h-6c-0.553,0-1,0.448-1,1s0.447,1,1,1h6v6
	c0,0.552,0.447,1,1,1s1-0.448,1-1v-6h6c0.553,0,1-0.448,1-1S46.553,8,46,8z"></path></g></svg>