<svg xmlns="http://www.w3.org/2000/svg" width="1440" height="900"><path d="M749,412L850,323L718,307Z" fill="#77b3d8" stroke="#77b3d8" stroke-width="1.51"/><path d="M749,412L853,471L850,323Z" fill="#6bacd4" stroke="#6bacd4" stroke-width="1.51"/><path d="M850,323L808,189L718,307Z" fill="#81b7d9" stroke="#81b7d9" stroke-width="1.51"/><path d="M808,189L723,195L718,307Z" fill="#89bcdd" stroke="#89bcdd" stroke-width="1.51"/><path d="M718,307L592,319L749,412Z" fill="#7fb8db" stroke="#7fb8db" stroke-width="1.51"/><path d="M723,195L592,319L718,307Z" fill="#8bbedd" stroke="#8bbedd" stroke-width="1.51"/><path d="M853,471L950,457L850,323Z" fill="#63a6d2" stroke="#63a6d2" stroke-width="1.51"/><path d="M850,323L989,172L808,189Z" fill="#80b5d8" stroke="#80b5d8" stroke-width="1.51"/><path d="M950,457L991,295L850,323Z" fill="#69a9d2" stroke="#69a9d2" stroke-width="1.51"/><path d="M853,471L881,542L950,457Z" fill="#58a0ce" stroke="#58a0ce" stroke-width="1.51"/><path d="M744,605L881,542L853,471Z" fill="#59a0cf" stroke="#59a0cf" stroke-width="1.51"/><path d="M744,605L853,471L749,412Z" fill="#61a6d2" stroke="#61a6d2" stroke-width="1.51"/><path d="M723,195L588,178L592,319Z" fill="#95c3e0" stroke="#95c3e0" stroke-width="1.51"/><path d="M626,53L588,178L723,195Z" fill="#9ec7e3" stroke="#9ec7e3" stroke-width="1.51"/><path d="M592,319L561,485L749,412Z" fill="#7cb6da" stroke="#7cb6da" stroke-width="1.51"/><path d="M482,414L561,485L592,319Z" fill="#86bcdc" stroke="#86bcdc" stroke-width="1.51"/><path d="M601,575L744,605L749,412Z" fill="#65a9d2" stroke="#65a9d2" stroke-width="1.51"/><path d="M991,295L989,172L850,323Z" fill="#77afd5" stroke="#77afd5" stroke-width="1.51"/><path d="M808,189L716,51L723,195Z" fill="#94c0e0" stroke="#94c0e0" stroke-width="1.51"/><path d="M561,485L601,575L749,412Z" fill="#70afd6" stroke="#70afd6" stroke-width="1.51"/><path d="M950,457L1086,335L991,295Z" fill="#64a3cf" stroke="#64a3cf" stroke-width="1.51"/><path d="M991,295L1109,163L989,172Z" fill="#7aabd4" stroke="#7aabd4" stroke-width="1.51"/><path d="M881,542L1003,547L950,457Z" fill="#519bcc" stroke="#519bcc" stroke-width="1.51"/><path d="M947,662L1003,547L881,542Z" fill="#4895c8" stroke="#4895c8" stroke-width="1.51"/><path d="M472,206L480,363L592,319Z" fill="#99c6e0" stroke="#99c6e0" stroke-width="1.51"/><path d="M561,485L507,599L601,575Z" fill="#73afd5" stroke="#73afd5" stroke-width="1.51"/><path d="M854,39L716,51L808,189Z" fill="#97c0e1" stroke="#97c0e1" stroke-width="1.51"/><path d="M1112,412L1086,335L950,457Z" fill="#5b9dcc" stroke="#5b9dcc" stroke-width="1.51"/><path d="M480,363L482,414L592,319Z" fill="#8ec1dd" stroke="#8ec1dd" stroke-width="1.51"/><path d="M955,81L854,39L808,189Z" fill="#90bbde" stroke="#90bbde" stroke-width="1.51"/><path d="M1065,80L955,81L989,172Z" fill="#87b2d9" stroke="#87b2d9" stroke-width="1.51"/><path d="M989,172L955,81L808,189Z" fill="#88b6db" stroke="#88b6db" stroke-width="1.51"/><path d="M716,51L626,53L723,195Z" fill="#9ec7e3" stroke="#9ec7e3" stroke-width="1.51"/><path d="M588,178L472,206L592,319Z" fill="#9dc8e1" stroke="#9dc8e1" stroke-width="1.51"/><path d="M720,-62L626,53L716,51Z" fill="#a5cbe6" stroke="#a5cbe6" stroke-width="1.51"/><path d="M1003,547L1112,412L950,457Z" fill="#5299cb" stroke="#5299cb" stroke-width="1.51"/><path d="M874,707L947,662L881,542Z" fill="#4693c8" stroke="#4693c8" stroke-width="1.51"/><path d="M601,575L743,682L744,605Z" fill="#5ba1cf" stroke="#5ba1cf" stroke-width="1.51"/><path d="M444,104L472,206L588,178Z" fill="#aacee5" stroke="#aacee5" stroke-width="1.51"/><path d="M480,363L375,355L482,414Z" fill="#94c3df" stroke="#94c3df" stroke-width="1.51"/><path d="M874,707L881,542L744,605Z" fill="#4e99ca" stroke="#4e99ca" stroke-width="1.51"/><path d="M1003,547L1112,606L1112,412Z" fill="#4991c6" stroke="#4991c6" stroke-width="1.51"/><path d="M601,575L576,681L743,682Z" fill="#60a2cf" stroke="#60a2cf" stroke-width="1.51"/><path d="M482,414L507,599L561,485Z" fill="#7db6d9" stroke="#7db6d9" stroke-width="1.51"/><path d="M743,682L874,707L744,605Z" fill="#4f98ca" stroke="#4f98ca" stroke-width="1.51"/><path d="M1086,335L1109,163L991,295Z" fill="#71a6d0" stroke="#71a6d0" stroke-width="1.51"/><path d="M1191,178L1109,163L1086,335Z" fill="#73a3cf" stroke="#73a3cf" stroke-width="1.51"/><path d="M1109,163L1065,80L989,172Z" fill="#82add6" stroke="#82add6" stroke-width="1.51"/><path d="M955,81L873,-43L854,39Z" fill="#95bddf" stroke="#95bddf" stroke-width="1.51"/><path d="M507,599L576,681L601,575Z" fill="#6caad2" stroke="#6caad2" stroke-width="1.51"/><path d="M743,682L811,846L874,707Z" fill="#468ec5" stroke="#468ec5" stroke-width="1.51"/><path d="M854,39L720,-62L716,51Z" fill="#9fc6e3" stroke="#9fc6e3" stroke-width="1.51"/><path d="M988,-32L873,-43L955,81Z" fill="#93bcde" stroke="#93bcde" stroke-width="1.51"/><path d="M482,414L321,589L507,599Z" fill="#82b7d9" stroke="#82b7d9" stroke-width="1.51"/><path d="M472,206L375,355L480,363Z" fill="#9ec9e1" stroke="#9ec9e1" stroke-width="1.51"/><path d="M873,-43L720,-62L854,39Z" fill="#9ec4e2" stroke="#9ec4e2" stroke-width="1.51"/><path d="M626,53L444,104L588,178Z" fill="#abcee6" stroke="#abcee6" stroke-width="1.51"/><path d="M472,206L320,214L375,355Z" fill="#a9cee5" stroke="#a9cee5" stroke-width="1.51"/><path d="M477,-84L444,104L626,53Z" fill="#b5d4e9" stroke="#b5d4e9" stroke-width="1.51"/><path d="M1115,729L1112,606L947,662Z" fill="#3886c1" stroke="#3886c1" stroke-width="1.51"/><path d="M947,662L1112,606L1003,547Z" fill="#418fc4" stroke="#418fc4" stroke-width="1.51"/><path d="M873,-43L850,-144L720,-62Z" fill="#a2c7e4" stroke="#a2c7e4" stroke-width="1.51"/><path d="M1065,80L988,-32L955,81Z" fill="#8db5db" stroke="#8db5db" stroke-width="1.51"/><path d="M1065,80L1120,-82L988,-32Z" fill="#8eb3da" stroke="#8eb3da" stroke-width="1.51"/><path d="M1109,163L1186,55L1065,80Z" fill="#83aad5" stroke="#83aad5" stroke-width="1.51"/><path d="M1250,286L1191,178L1086,335Z" fill="#6c9ecc" stroke="#6c9ecc" stroke-width="1.51"/><path d="M1250,286L1086,335L1112,412Z" fill="#609acb" stroke="#609acb" stroke-width="1.51"/><path d="M507,599L480,694L576,681Z" fill="#6ea8d1" stroke="#6ea8d1" stroke-width="1.51"/><path d="M726,856L811,846L743,682Z" fill="#488cc4" stroke="#488cc4" stroke-width="1.51"/><path d="M334,673L480,694L507,599Z" fill="#77abd4" stroke="#77abd4" stroke-width="1.51"/><path d="M720,-62L590,-79L626,53Z" fill="#accfe8" stroke="#accfe8" stroke-width="1.51"/><path d="M698,-209L590,-79L720,-62Z" fill="#b0d2e9" stroke="#b0d2e9" stroke-width="1.51"/><path d="M1112,606L1187,580L1112,412Z" fill="#448cc4" stroke="#448cc4" stroke-width="1.51"/><path d="M1196,707L1187,580L1112,606Z" fill="#3482be" stroke="#3482be" stroke-width="1.51"/><path d="M1254,460L1250,286L1112,412Z" fill="#5793c7" stroke="#5793c7" stroke-width="1.51"/><path d="M375,355L310,429L482,414Z" fill="#96c3e0" stroke="#96c3e0" stroke-width="1.51"/><path d="M182,316L310,429L375,355Z" fill="#a3c9e4" stroke="#a3c9e4" stroke-width="1.51"/><path d="M444,104L320,214L472,206Z" fill="#b1d1e7" stroke="#b1d1e7" stroke-width="1.51"/><path d="M368,80L320,214L444,104Z" fill="#b9d5ea" stroke="#b9d5ea" stroke-width="1.51"/><path d="M1187,580L1254,460L1112,412Z" fill="#488cc4" stroke="#488cc4" stroke-width="1.51"/><path d="M477,-84L368,80L444,104Z" fill="#bcd8eb" stroke="#bcd8eb" stroke-width="1.51"/><path d="M995,-171L850,-144L873,-43Z" fill="#9fc3e1" stroke="#9fc3e1" stroke-width="1.51"/><path d="M1191,178L1186,55L1109,163Z" fill="#7da5d2" stroke="#7da5d2" stroke-width="1.51"/><path d="M988,-32L995,-171L873,-43Z" fill="#99bedf" stroke="#99bedf" stroke-width="1.51"/><path d="M1351,64L1186,55L1191,178Z" fill="#7ea1cf" stroke="#7ea1cf" stroke-width="1.51"/><path d="M726,856L743,682L576,681Z" fill="#5596c9" stroke="#5596c9" stroke-width="1.51"/><path d="M874,707L945,822L947,662Z" fill="#3c89c2" stroke="#3c89c2" stroke-width="1.51"/><path d="M811,846L945,822L874,707Z" fill="#3d86c0" stroke="#3d86c0" stroke-width="1.51"/><path d="M1319,411L1321,354L1254,460Z" fill="#508ac1" stroke="#508ac1" stroke-width="1.51"/><path d="M1081,788L1115,729L947,662Z" fill="#3481be" stroke="#3481be" stroke-width="1.51"/><path d="M559,846L726,856L576,681Z" fill="#5995c8" stroke="#5995c8" stroke-width="1.51"/><path d="M310,429L321,589L482,414Z" fill="#8ebdde" stroke="#8ebdde" stroke-width="1.51"/><path d="M590,-79L477,-84L626,53Z" fill="#b5d4e9" stroke="#b5d4e9" stroke-width="1.51"/><path d="M484,-161L477,-84L590,-79Z" fill="#bfdaec" stroke="#bfdaec" stroke-width="1.51"/><path d="M945,822L1081,788L947,662Z" fill="#3582be" stroke="#3582be" stroke-width="1.51"/><path d="M310,429L254,463L321,589Z" fill="#93bfdf" stroke="#93bfdf" stroke-width="1.51"/><path d="M182,316L254,463L310,429Z" fill="#a1c8e4" stroke="#a1c8e4" stroke-width="1.51"/><path d="M1254,460L1321,354L1250,286Z" fill="#588fc4" stroke="#588fc4" stroke-width="1.51"/><path d="M1250,286L1318,208L1191,178Z" fill="#6f9aca" stroke="#6f9aca" stroke-width="1.51"/><path d="M1319,411L1254,460L1349,572Z" fill="#4484bd" stroke="#4484bd" stroke-width="1.51"/><path d="M1196,707L1112,606L1115,729Z" fill="#317fbc" stroke="#317fbc" stroke-width="1.51"/><path d="M1349,572L1254,460L1187,580Z" fill="#3e83bd" stroke="#3e83bd" stroke-width="1.51"/><path d="M1186,55L1120,-82L1065,80Z" fill="#89add7" stroke="#89add7" stroke-width="1.51"/><path d="M459,842L559,846L480,694Z" fill="#689bcb" stroke="#689bcb" stroke-width="1.51"/><path d="M480,694L559,846L576,681Z" fill="#669fcd" stroke="#669fcd" stroke-width="1.51"/><path d="M1239,792L1196,707L1115,729Z" fill="#2876b8" stroke="#2876b8" stroke-width="1.51"/><path d="M321,589L334,673L507,599Z" fill="#7eb1d7" stroke="#7eb1d7" stroke-width="1.51"/><path d="M254,683L334,673L321,589Z" fill="#84b1d8" stroke="#84b1d8" stroke-width="1.51"/><path d="M1321,354L1318,208L1250,286Z" fill="#6694c6" stroke="#6694c6" stroke-width="1.51"/><path d="M1186,55L1205,-68L1120,-82Z" fill="#8aacd6" stroke="#8aacd6" stroke-width="1.51"/><path d="M1087,-151L995,-171L988,-32Z" fill="#98badd" stroke="#98badd" stroke-width="1.51"/><path d="M850,-144L698,-209L720,-62Z" fill="#abcde7" stroke="#abcde7" stroke-width="1.51"/><path d="M995,-171L698,-209L850,-144Z" fill="#a7c9e5" stroke="#a7c9e5" stroke-width="1.51"/><path d="M698,-209L632,-212L590,-79Z" fill="#b7d5eb" stroke="#b7d5eb" stroke-width="1.51"/><path d="M1219,-196L1087,-151L1120,-82Z" fill="#94b3da" stroke="#94b3da" stroke-width="1.51"/><path d="M1120,-82L1087,-151L988,-32Z" fill="#94b6db" stroke="#94b6db" stroke-width="1.51"/><path d="M632,-212L484,-161L590,-79Z" fill="#bdd9ec" stroke="#bdd9ec" stroke-width="1.51"/><path d="M477,-84L351,-86L368,80Z" fill="#c3dced" stroke="#c3dced" stroke-width="1.51"/><path d="M320,214L182,316L375,355Z" fill="#accfe6" stroke="#accfe6" stroke-width="1.51"/><path d="M368,80L214,186L320,214Z" fill="#bcd7eb" stroke="#bcd7eb" stroke-width="1.51"/><path d="M199,51L214,186L368,80Z" fill="#c5daee" stroke="#c5daee" stroke-width="1.51"/><path d="M620,977L722,936L726,856Z" fill="#4b84bc" stroke="#4b84bc" stroke-width="1.51"/><path d="M317,805L459,842L480,694Z" fill="#71a0ce" stroke="#71a0ce" stroke-width="1.51"/><path d="M1342,-56L1205,-68L1186,55Z" fill="#87a5d2" stroke="#87a5d2" stroke-width="1.51"/><path d="M726,856L722,936L811,846Z" fill="#4585be" stroke="#4585be" stroke-width="1.51"/><path d="M811,846L954,974L945,822Z" fill="#367cb8" stroke="#367cb8" stroke-width="1.51"/><path d="M945,822L1064,941L1081,788Z" fill="#2c76b7" stroke="#2c76b7" stroke-width="1.51"/><path d="M620,977L726,856L559,846Z" fill="#548ac0" stroke="#548ac0" stroke-width="1.51"/><path d="M214,186L182,316L320,214Z" fill="#b7d5e9" stroke="#b7d5e9" stroke-width="1.51"/><path d="M254,463L218,568L321,589Z" fill="#91bcde" stroke="#91bcde" stroke-width="1.51"/><path d="M87,411L218,568L254,463Z" fill="#9cc4e2" stroke="#9cc4e2" stroke-width="1.51"/><path d="M334,673L317,805L480,694Z" fill="#78a7d2" stroke="#78a7d2" stroke-width="1.51"/><path d="M363,-184L351,-86L477,-84Z" fill="#cae0ef" stroke="#cae0ef" stroke-width="1.51"/><path d="M1437,103L1351,64L1318,208Z" fill="#7896c7" stroke="#7896c7" stroke-width="1.51"/><path d="M1319,411L1451,488L1321,354Z" fill="#4c85bd" stroke="#4c85bd" stroke-width="1.51"/><path d="M1196,707L1349,572L1187,580Z" fill="#337dba" stroke="#337dba" stroke-width="1.51"/><path d="M218,568L254,683L321,589Z" fill="#8ab6db" stroke="#8ab6db" stroke-width="1.51"/><path d="M722,936L821,978L811,846Z" fill="#417eba" stroke="#417eba" stroke-width="1.51"/><path d="M1081,788L1239,792L1115,729Z" fill="#2876b7" stroke="#2876b7" stroke-width="1.51"/><path d="M702,1076L821,978L722,936Z" fill="#4179b3" stroke="#4179b3" stroke-width="1.51"/><path d="M1437,103L1318,208L1506,193Z" fill="#7090c3" stroke="#7090c3" stroke-width="1.51"/><path d="M1318,208L1351,64L1191,178Z" fill="#779bcb" stroke="#779bcb" stroke-width="1.51"/><path d="M1196,707L1324,735L1349,572Z" fill="#2c75b5" stroke="#2c75b5" stroke-width="1.51"/><path d="M1202,957L1239,792L1081,788Z" fill="#206db1" stroke="#206db1" stroke-width="1.51"/><path d="M458,958L620,977L559,846Z" fill="#5d8bc0" stroke="#5d8bc0" stroke-width="1.51"/><path d="M458,958L559,846L459,842Z" fill="#6593c5" stroke="#6593c5" stroke-width="1.51"/><path d="M191,-13L199,51L368,80Z" fill="#cbdef1" stroke="#cbdef1" stroke-width="1.51"/><path d="M66,334L87,411L182,316Z" fill="#afd1e8" stroke="#afd1e8" stroke-width="1.51"/><path d="M821,978L954,974L811,846Z" fill="#3879b6" stroke="#3879b6" stroke-width="1.51"/><path d="M254,683L317,805L334,673Z" fill="#80aad4" stroke="#80aad4" stroke-width="1.51"/><path d="M954,974L1064,941L945,822Z" fill="#2c74b4" stroke="#2c74b4" stroke-width="1.51"/><path d="M1239,792L1324,735L1196,707Z" fill="#2571b4" stroke="#2571b4" stroke-width="1.51"/><path d="M1369,856L1324,735L1239,792Z" fill="#1c68ae" stroke="#1c68ae" stroke-width="1.51"/><path d="M351,-86L191,-13L368,80Z" fill="#cadef0" stroke="#cadef0" stroke-width="1.51"/><path d="M484,-161L363,-184L477,-84Z" fill="#c8dfef" stroke="#c8dfef" stroke-width="1.51"/><path d="M632,-212L363,-184L484,-161Z" fill="#c6dfef" stroke="#c6dfef" stroke-width="1.51"/><path d="M1349,572L1451,488L1319,411Z" fill="#417eb9" stroke="#417eb9" stroke-width="1.51"/><path d="M1476,567L1451,488L1349,572Z" fill="#3877b4" stroke="#3877b4" stroke-width="1.51"/><path d="M191,-203L191,-13L351,-86Z" fill="#d5e4f4" stroke="#d5e4f4" stroke-width="1.51"/><path d="M66,334L182,316L70,198Z" fill="#b9d7ea" stroke="#b9d7ea" stroke-width="1.51"/><path d="M1351,64L1342,-56L1186,55Z" fill="#82a0ce" stroke="#82a0ce" stroke-width="1.51"/><path d="M1205,-68L1219,-196L1120,-82Z" fill="#90afd8" stroke="#90afd8" stroke-width="1.51"/><path d="M1474,-17L1342,-56L1351,64Z" fill="#819aca" stroke="#819aca" stroke-width="1.51"/><path d="M323,921L458,958L459,842Z" fill="#6c93c5" stroke="#6c93c5" stroke-width="1.51"/><path d="M218,568L125,686L254,683Z" fill="#8bb5db" stroke="#8bb5db" stroke-width="1.51"/><path d="M254,683L225,833L317,805Z" fill="#80a6d3" stroke="#80a6d3" stroke-width="1.51"/><path d="M182,316L87,411L254,463Z" fill="#a6cbe5" stroke="#a6cbe5" stroke-width="1.51"/><path d="M182,316L214,186L70,198Z" fill="#bdd7eb" stroke="#bdd7eb" stroke-width="1.51"/><path d="M1323,-199L1219,-196L1205,-68Z" fill="#91abd5" stroke="#91abd5" stroke-width="1.51"/><path d="M1087,-151L1219,-196L995,-171Z" fill="#99b7dc" stroke="#99b7dc" stroke-width="1.51"/><path d="M995,-171L1219,-196L698,-209Z" fill="#a0c2e1" stroke="#a0c2e1" stroke-width="1.51"/><path d="M698,-209L1323,-199L632,-212Z" fill="#a7c8e5" stroke="#a7c8e5" stroke-width="1.51"/><path d="M1494,290L1318,208L1321,354Z" fill="#638ec1" stroke="#638ec1" stroke-width="1.51"/><path d="M70,198L214,186L199,51Z" fill="#c6dcef" stroke="#c6dcef" stroke-width="1.51"/><path d="M1451,488L1494,290L1321,354Z" fill="#5283bb" stroke="#5283bb" stroke-width="1.51"/><path d="M87,411L108,610L218,568Z" fill="#9ac1e1" stroke="#9ac1e1" stroke-width="1.51"/><path d="M317,805L323,921L459,842Z" fill="#729aca" stroke="#729aca" stroke-width="1.51"/><path d="M-17,462L108,610L87,411Z" fill="#a1c7e4" stroke="#a1c7e4" stroke-width="1.51"/><path d="M69,40L70,198L199,51Z" fill="#cee0f1" stroke="#cee0f1" stroke-width="1.51"/><path d="M1451,488L1570,298L1494,290Z" fill="#537eb3" stroke="#537eb3" stroke-width="1.51"/><path d="M1500,723L1476,567L1349,572Z" fill="#2c6faf" stroke="#2c6faf" stroke-width="1.51"/><path d="M849,1106L994,1073L954,974Z" fill="#2d69a5" stroke="#2d69a5" stroke-width="1.51"/><path d="M1073,1100L1202,957L1064,941Z" fill="#1f63a6" stroke="#1f63a6" stroke-width="1.51"/><path d="M620,977L702,1076L722,936Z" fill="#497db5" stroke="#497db5" stroke-width="1.51"/><path d="M584,1060L702,1076L620,977Z" fill="#4d7bb0" stroke="#4d7bb0" stroke-width="1.51"/><path d="M225,833L323,921L317,805Z" fill="#799dcc" stroke="#799dcc" stroke-width="1.51"/><path d="M458,958L584,1060L620,977Z" fill="#5984b8" stroke="#5984b8" stroke-width="1.51"/><path d="M108,610L125,686L218,568Z" fill="#90b9dc" stroke="#90b9dc" stroke-width="1.51"/><path d="M125,686L225,833L254,683Z" fill="#86abd6" stroke="#86abd6" stroke-width="1.51"/><path d="M499,1111L584,1060L458,958Z" fill="#5b81b2" stroke="#5b81b2" stroke-width="1.51"/><path d="M1494,290L1506,193L1318,208Z" fill="#688cbf" stroke="#688cbf" stroke-width="1.51"/><path d="M1439,-176L1323,-199L1342,-56Z" fill="#8ca1ce" stroke="#8ca1ce" stroke-width="1.51"/><path d="M1570,298L1506,193L1494,290Z" fill="#6184b4" stroke="#6184b4" stroke-width="1.51"/><path d="M1064,941L1202,957L1081,788Z" fill="#226cb0" stroke="#226cb0" stroke-width="1.51"/><path d="M1324,735L1500,723L1349,572Z" fill="#276eb0" stroke="#276eb0" stroke-width="1.51"/><path d="M994,1073L1064,941L954,974Z" fill="#286aaa" stroke="#286aaa" stroke-width="1.51"/><path d="M849,1106L954,974L821,978Z" fill="#3470ab" stroke="#3470ab" stroke-width="1.51"/><path d="M702,1076L849,1106L821,978Z" fill="#3c70a9" stroke="#3c70a9" stroke-width="1.51"/><path d="M499,1111L849,1106L702,1076Z" fill="#4572a6" stroke="#4572a6" stroke-width="1.51"/><path d="M1342,-56L1323,-199L1205,-68Z" fill="#8ca6d2" stroke="#8ca6d2" stroke-width="1.51"/><path d="M1219,-196L1323,-199L698,-209Z" fill="#9cbadd" stroke="#9cbadd" stroke-width="1.51"/><path d="M1474,-17L1351,64L1437,103Z" fill="#7c95c7" stroke="#7c95c7" stroke-width="1.51"/><path d="M191,-13L69,40L199,51Z" fill="#d1e2f2" stroke="#d1e2f2" stroke-width="1.51"/><path d="M-28,351L87,411L66,334Z" fill="#b1d2e8" stroke="#b1d2e8" stroke-width="1.51"/><path d="M79,-24L69,40L191,-13Z" fill="#d5e4f4" stroke="#d5e4f4" stroke-width="1.51"/><path d="M1202,957L1369,856L1239,792Z" fill="#1964ab" stroke="#1964ab" stroke-width="1.51"/><path d="M1568,37L1474,-17L1437,103Z" fill="#7a90bf" stroke="#7a90bf" stroke-width="1.51"/><path d="M1506,193L1568,37L1437,103Z" fill="#748bbc" stroke="#748bbc" stroke-width="1.51"/><path d="M1622,460L1570,298L1451,488Z" fill="#4877ac" stroke="#4877ac" stroke-width="1.51"/><path d="M123,-207L79,-24L191,-13Z" fill="#d9e7f5" stroke="#d9e7f5" stroke-width="1.51"/><path d="M1476,567L1562,536L1451,488Z" fill="#3972ad" stroke="#3972ad" stroke-width="1.51"/><path d="M1593,677L1562,536L1476,567Z" fill="#2f6aa5" stroke="#2f6aa5" stroke-width="1.51"/><path d="M363,-184L191,-203L351,-86Z" fill="#d5e5f4" stroke="#d5e5f4" stroke-width="1.51"/><path d="M632,-212L191,-203L363,-184Z" fill="#d0e4f1" stroke="#d0e4f1" stroke-width="1.51"/><path d="M108,610L-28,702L125,686Z" fill="#92b7dc" stroke="#92b7dc" stroke-width="1.51"/><path d="M-28,351L-17,462L87,411Z" fill="#add0e8" stroke="#add0e8" stroke-width="1.51"/><path d="M-28,351L66,334L-20,226Z" fill="#bcd9eb" stroke="#bcd9eb" stroke-width="1.51"/><path d="M66,334L70,198L-20,226Z" fill="#c0daec" stroke="#c0daec" stroke-width="1.51"/><path d="M-20,226L70,198L-23,44Z" fill="#cde0f1" stroke="#cde0f1" stroke-width="1.51"/><path d="M1202,957L1354,981L1369,856Z" fill="#135ca4" stroke="#135ca4" stroke-width="1.51"/><path d="M994,1073L1073,1100L1064,941Z" fill="#2463a3" stroke="#2463a3" stroke-width="1.51"/><path d="M849,1106L1073,1100L994,1073Z" fill="#29629e" stroke="#29629e" stroke-width="1.51"/><path d="M-23,44L70,198L69,40Z" fill="#d2e2f3" stroke="#d2e2f3" stroke-width="1.51"/><path d="M1488,829L1500,723L1324,735Z" fill="#1c63a8" stroke="#1c63a8" stroke-width="1.51"/><path d="M584,1060L499,1111L702,1076Z" fill="#5178ab" stroke="#5178ab" stroke-width="1.51"/><path d="M318,1080L499,1111L458,958Z" fill="#6484b4" stroke="#6484b4" stroke-width="1.51"/><path d="M318,1080L458,958L323,921Z" fill="#6d8dbf" stroke="#6d8dbf" stroke-width="1.51"/><path d="M225,833L217,950L323,921Z" fill="#7a99ca" stroke="#7a99ca" stroke-width="1.51"/><path d="M79,843L217,950L225,833Z" fill="#809ecd" stroke="#809ecd" stroke-width="1.51"/><path d="M79,843L225,833L125,686Z" fill="#86a8d5" stroke="#86a8d5" stroke-width="1.51"/><path d="M1474,-17L1439,-176L1342,-56Z" fill="#869bca" stroke="#869bca" stroke-width="1.51"/><path d="M1615,-63L1439,-176L1474,-17Z" fill="#8294c0" stroke="#8294c0" stroke-width="1.51"/><path d="M1631,181L1568,37L1506,193Z" fill="#6e85b4" stroke="#6e85b4" stroke-width="1.51"/><path d="M1562,536L1622,460L1451,488Z" fill="#3c71a9" stroke="#3c71a9" stroke-width="1.51"/><path d="M1570,298L1631,181L1506,193Z" fill="#6481b0" stroke="#6481b0" stroke-width="1.51"/><path d="M1714,560L1622,460L1562,536Z" fill="#37689f" stroke="#37689f" stroke-width="1.51"/><path d="M-17,462L-47,547L108,610Z" fill="#9fc4e3" stroke="#9fc4e3" stroke-width="1.51"/><path d="M-149,554L-47,547L-17,462Z" fill="#a5c9e5" stroke="#a5c9e5" stroke-width="1.51"/><path d="M-121,358L-17,462L-28,351Z" fill="#b4d4ea" stroke="#b4d4ea" stroke-width="1.51"/><path d="M1227,1094L1354,981L1202,957Z" fill="#13579e" stroke="#13579e" stroke-width="1.51"/><path d="M1369,856L1488,829L1324,735Z" fill="#1862a9" stroke="#1862a9" stroke-width="1.51"/><path d="M1442,985L1488,829L1369,856Z" fill="#1057a0" stroke="#1057a0" stroke-width="1.51"/><path d="M1500,723L1593,677L1476,567Z" fill="#2866a5" stroke="#2866a5" stroke-width="1.51"/><path d="M-20,226L-121,358L-28,351Z" fill="#bedaec" stroke="#bedaec" stroke-width="1.51"/><path d="M-22,-26L-23,44L69,40Z" fill="#d9e7f5" stroke="#d9e7f5" stroke-width="1.51"/><path d="M-22,-26L69,40L79,-24Z" fill="#d8e7f5" stroke="#d8e7f5" stroke-width="1.51"/><path d="M191,-203L123,-207L191,-13Z" fill="#dce9f6" stroke="#dce9f6" stroke-width="1.51"/><path d="M632,-212L123,-207L191,-203Z" fill="#d7e7f4" stroke="#d7e7f4" stroke-width="1.51"/><path d="M-28,702L79,843L125,686Z" fill="#8eb0d8" stroke="#8eb0d8" stroke-width="1.51"/><path d="M1747,319L1631,181L1570,298Z" fill="#5c79a6" stroke="#5c79a6" stroke-width="1.51"/><path d="M216,1076L318,1080L217,950Z" fill="#748bbb" stroke="#748bbb" stroke-width="1.51"/><path d="M217,950L318,1080L323,921Z" fill="#7490c2" stroke="#7490c2" stroke-width="1.51"/><path d="M1073,1100L1227,1094L1202,957Z" fill="#195a9d" stroke="#195a9d" stroke-width="1.51"/><path d="M1575,795L1593,677L1500,723Z" fill="#1f5d9d" stroke="#1f5d9d" stroke-width="1.51"/><path d="M-47,547L-28,702L108,610Z" fill="#98bddf" stroke="#98bddf" stroke-width="1.51"/><path d="M7,-186L-22,-26L79,-24Z" fill="#dfecf7" stroke="#dfecf7" stroke-width="1.51"/><path d="M-191,235L-121,358L-20,226Z" fill="#c6dfee" stroke="#c6dfee" stroke-width="1.51"/><path d="M-47,547L-127,698L-28,702Z" fill="#9abedf" stroke="#9abedf" stroke-width="1.51"/><path d="M-131,94L-20,226L-23,44Z" fill="#d4e4f4" stroke="#d4e4f4" stroke-width="1.51"/><path d="M1488,829L1575,795L1500,723Z" fill="#185b9e" stroke="#185b9e" stroke-width="1.51"/><path d="M1354,981L1442,985L1369,856Z" fill="#0d56a0" stroke="#0d56a0" stroke-width="1.51"/><path d="M1227,1094L1366,1039L1354,981Z" fill="#105197" stroke="#105197" stroke-width="1.51"/><path d="M1608,912L1575,795L1488,829Z" fill="#135297" stroke="#135297" stroke-width="1.51"/><path d="M-16,853L101,962L79,843Z" fill="#86a1cf" stroke="#86a1cf" stroke-width="1.51"/><path d="M79,843L101,962L217,950Z" fill="#809bcb" stroke="#809bcb" stroke-width="1.51"/><path d="M1366,1039L1442,985L1354,981Z" fill="#0c5099" stroke="#0c5099" stroke-width="1.51"/><path d="M114,1044L216,1076L217,950Z" fill="#788fbd" stroke="#788fbd" stroke-width="1.51"/><path d="M318,1080L-23,1107L499,1111Z" fill="#7083b1" stroke="#7083b1" stroke-width="1.51"/><path d="M1731,-13L1615,-63L1568,37Z" fill="#7887b0" stroke="#7887b0" stroke-width="1.51"/><path d="M1568,37L1615,-63L1474,-17Z" fill="#7b8dba" stroke="#7b8dba" stroke-width="1.51"/><path d="M-184,-31L-131,94L-23,44Z" fill="#deebf7" stroke="#deebf7" stroke-width="1.51"/><path d="M123,-207L7,-186L79,-24Z" fill="#e1ecf8" stroke="#e1ecf8" stroke-width="1.51"/><path d="M1622,460L1714,440L1570,298Z" fill="#4871a3" stroke="#4871a3" stroke-width="1.51"/><path d="M1631,181L1733,58L1568,37Z" fill="#7081ad" stroke="#7081ad" stroke-width="1.51"/><path d="M1714,560L1714,440L1622,460Z" fill="#3b699e" stroke="#3b699e" stroke-width="1.51"/><path d="M1714,560L1562,536L1593,677Z" fill="#2e649d" stroke="#2e649d" stroke-width="1.51"/><path d="M101,962L114,1044L217,950Z" fill="#7c94c4" stroke="#7c94c4" stroke-width="1.51"/><path d="M-28,702L-16,853L79,843Z" fill="#8cabd6" stroke="#8cabd6" stroke-width="1.51"/><path d="M-173,809L-16,853L-28,702Z" fill="#92afd8" stroke="#92afd8" stroke-width="1.51"/><path d="M-184,-31L-23,44L-22,-26Z" fill="#dfebf7" stroke="#dfebf7" stroke-width="1.51"/><path d="M-187,428L-149,554L-17,462Z" fill="#accee8" stroke="#accee8" stroke-width="1.51"/><path d="M-187,428L-17,462L-121,358Z" fill="#b3d3ea" stroke="#b3d3ea" stroke-width="1.51"/><path d="M1730,662L1714,560L1593,677Z" fill="#285e97" stroke="#285e97" stroke-width="1.51"/><path d="M-69,983L114,1044L101,962Z" fill="#8196c4" stroke="#8196c4" stroke-width="1.51"/><path d="M1714,560L1747,319L1714,440Z" fill="#416da0" stroke="#416da0" stroke-width="1.51"/><path d="M1714,440L1747,319L1570,298Z" fill="#4f73a2" stroke="#4f73a2" stroke-width="1.51"/><path d="M-191,235L-187,428L-121,358Z" fill="#c0dbed" stroke="#c0dbed" stroke-width="1.51"/><path d="M-173,809L-127,698L-149,554Z" fill="#9dbcdf" stroke="#9dbcdf" stroke-width="1.51"/><path d="M-149,554L-127,698L-47,547Z" fill="#a0c3e2" stroke="#a0c3e2" stroke-width="1.51"/><path d="M-16,853L-69,983L101,962Z" fill="#879ecc" stroke="#879ecc" stroke-width="1.51"/><path d="M-131,94L-191,235L-20,226Z" fill="#d0e3f2" stroke="#d0e3f2" stroke-width="1.51"/><path d="M1747,319L1746,188L1631,181Z" fill="#607ba7" stroke="#607ba7" stroke-width="1.51"/><path d="M1713,839L1730,662L1593,677Z" fill="#1e5693" stroke="#1e5693" stroke-width="1.51"/><path d="M1442,985L1608,912L1488,829Z" fill="#0e5096" stroke="#0e5096" stroke-width="1.51"/><path d="M1366,1039L1450,1074L1442,985Z" fill="#094b92" stroke="#094b92" stroke-width="1.51"/><path d="M1227,1094L1450,1074L1366,1039Z" fill="#0e4c91" stroke="#0e4c91" stroke-width="1.51"/><path d="M1615,-63L1612,-197L1439,-176Z" fill="#8592bc" stroke="#8592bc" stroke-width="1.51"/><path d="M1439,-176L1612,-197L1323,-199Z" fill="#8c9dc9" stroke="#8c9dc9" stroke-width="1.51"/><path d="M1323,-199L1612,-197L632,-212Z" fill="#97b2d9" stroke="#97b2d9" stroke-width="1.51"/><path d="M1698,-192L1612,-197L1615,-63Z" fill="#818cb3" stroke="#818cb3" stroke-width="1.51"/><path d="M1746,188L1733,58L1631,181Z" fill="#6a7eaa" stroke="#6a7eaa" stroke-width="1.51"/><path d="M1714,560L1730,662L1747,319Z" fill="#37679c" stroke="#37679c" stroke-width="1.51"/><path d="M1713,839L1593,677L1575,795Z" fill="#195493" stroke="#195493" stroke-width="1.51"/><path d="M1586,1065L1608,912L1442,985Z" fill="#09468c" stroke="#09468c" stroke-width="1.51"/><path d="M1746,188L1731,-13L1733,58Z" fill="#7081ac" stroke="#7081ac" stroke-width="1.51"/><path d="M1733,58L1731,-13L1568,37Z" fill="#7483ad" stroke="#7483ad" stroke-width="1.51"/><path d="M-131,94L-184,-31L-191,235Z" fill="#ddeaf6" stroke="#ddeaf6" stroke-width="1.51"/><path d="M-136,-149L-184,-31L-22,-26Z" fill="#e5eff9" stroke="#e5eff9" stroke-width="1.51"/><path d="M7,-186L-136,-149L-22,-26Z" fill="#e6f0f9" stroke="#e6f0f9" stroke-width="1.51"/><path d="M1699,984L1713,839L1608,912Z" fill="#0d4587" stroke="#0d4587" stroke-width="1.51"/><path d="M1608,912L1713,839L1575,795Z" fill="#124d8e" stroke="#124d8e" stroke-width="1.51"/><path d="M-187,428L-173,809L-149,554Z" fill="#a4c6e3" stroke="#a4c6e3" stroke-width="1.51"/><path d="M-127,698L-173,809L-28,702Z" fill="#97b6db" stroke="#97b6db" stroke-width="1.51"/><path d="M-173,809L-69,983L-16,853Z" fill="#8ea6d1" stroke="#8ea6d1" stroke-width="1.51"/><path d="M1731,-13L1698,-192L1615,-63Z" fill="#7c88b0" stroke="#7c88b0" stroke-width="1.51"/><path d="M1450,1074L1586,1065L1442,985Z" fill="#094489" stroke="#094489" stroke-width="1.51"/><path d="M1227,1094L1586,1065L1450,1074Z" fill="#09468c" stroke="#09468c" stroke-width="1.51"/><path d="M-177,1057L-23,1107L-69,983Z" fill="#8594bf" stroke="#8594bf" stroke-width="1.51"/><path d="M-69,983L-23,1107L114,1044Z" fill="#8092bd" stroke="#8092bd" stroke-width="1.51"/><path d="M114,1044L-23,1107L216,1076Z" fill="#798bb7" stroke="#798bb7" stroke-width="1.51"/><path d="M216,1076L-23,1107L318,1080Z" fill="#7587b4" stroke="#7587b4" stroke-width="1.51"/><path d="M1586,1065L1699,984L1608,912Z" fill="#084083" stroke="#084083" stroke-width="1.51"/><path d="M-173,809L-164,985L-69,983Z" fill="#8fa2cf" stroke="#8fa2cf" stroke-width="1.51"/><path d="M1586,1065L1720,1043L1699,984Z" fill="#093a7a" stroke="#093a7a" stroke-width="1.51"/><path d="M1699,984L1720,1043L1713,839Z" fill="#0a4184" stroke="#0a4184" stroke-width="1.51"/><path d="M1713,839L1720,1043L1730,662Z" fill="#124b8b" stroke="#124b8b" stroke-width="1.51"/><path d="M1730,662L1720,1043L1747,319Z" fill="#235a95" stroke="#235a95" stroke-width="1.51"/><path d="M-173,809L-177,1057L-164,985Z" fill="#90a2cd" stroke="#90a2cd" stroke-width="1.51"/><path d="M-164,985L-177,1057L-69,983Z" fill="#8a9ac6" stroke="#8a9ac6" stroke-width="1.51"/><path d="M-187,428L-177,1057L-173,809Z" fill="#99b5db" stroke="#99b5db" stroke-width="1.51"/><path d="M-191,235L-177,1057L-187,428Z" fill="#a7c8e5" stroke="#a7c8e5" stroke-width="1.51"/></svg>